<?xml version="1.0" encoding="utf-8" standalone="no"?>
<!DOCTYPE svg PUBLIC "-//W3C//DTD SVG 1.1//EN"
  "http://www.w3.org/Graphics/SVG/1.1/DTD/svg11.dtd">
<svg xmlns:xlink="http://www.w3.org/1999/xlink" width="416.024687pt" height="310.86825pt" viewBox="0 0 416.024687 310.86825" xmlns="http://www.w3.org/2000/svg" version="1.1">
 <metadata>
  <rdf:RDF xmlns:dc="http://purl.org/dc/elements/1.1/" xmlns:cc="http://creativecommons.org/ns#" xmlns:rdf="http://www.w3.org/1999/02/22-rdf-syntax-ns#">
   <cc:Work>
    <dc:type rdf:resource="http://purl.org/dc/dcmitype/StillImage"/>
    <dc:date>2023-12-10T22:02:28.430337</dc:date>
    <dc:format>image/svg+xml</dc:format>
    <dc:creator>
     <cc:Agent>
      <dc:title>Matplotlib v3.8.2, https://matplotlib.org/</dc:title>
     </cc:Agent>
    </dc:creator>
   </cc:Work>
  </rdf:RDF>
 </metadata>
 <defs>
  <style type="text/css">*{stroke-linejoin: round; stroke-linecap: butt}</style>
 </defs>
 <g id="figure_1">
  <g id="patch_1">
   <path d="M 0 310.86825 
L 416.024687 310.86825 
L 416.024687 0 
L 0 0 
z
" style="fill: #ffffff"/>
  </g>
  <g id="axes_1">
   <g id="patch_2">
    <path d="M 51.704688 273.312 
L 408.824687 273.312 
L 408.824687 7.2 
L 51.704688 7.2 
z
" style="fill: #ffffff"/>
   </g>
   <g id="matplotlib.axis_1">
    <g id="xtick_1">
     <g id="line2d_1">
      <path d="M 67.937415 273.312 
L 67.937415 7.2 
" clip-path="url(#pfac7618f83)" style="fill: none; stroke: #b0b0b0; stroke-width: 0.8; stroke-linecap: square"/>
     </g>
     <g id="line2d_2">
      <defs>
       <path id="m66b14420c4" d="M 0 0 
L 0 3.5 
" style="stroke: #000000; stroke-width: 0.8"/>
      </defs>
      <g>
       <use xlink:href="#m66b14420c4" x="67.937415" y="273.312" style="stroke: #000000; stroke-width: 0.8"/>
      </g>
     </g>
     <g id="text_1">
      <!-- 0 -->
      <g transform="translate(64.756165 287.910437) scale(0.1 -0.1)">
       <defs>
        <path id="DejaVuSans-30" d="M 2034 4250 
Q 1547 4250 1301 3770 
Q 1056 3291 1056 2328 
Q 1056 1369 1301 889 
Q 1547 409 2034 409 
Q 2525 409 2770 889 
Q 3016 1369 3016 2328 
Q 3016 3291 2770 3770 
Q 2525 4250 2034 4250 
z
M 2034 4750 
Q 2819 4750 3233 4129 
Q 3647 3509 3647 2328 
Q 3647 1150 3233 529 
Q 2819 -91 2034 -91 
Q 1250 -91 836 529 
Q 422 1150 422 2328 
Q 422 3509 836 4129 
Q 1250 4750 2034 4750 
z
" transform="scale(0.015625)"/>
       </defs>
       <use xlink:href="#DejaVuSans-30"/>
      </g>
     </g>
    </g>
    <g id="xtick_2">
     <g id="line2d_3">
      <path d="M 138.51449 273.312 
L 138.51449 7.2 
" clip-path="url(#pfac7618f83)" style="fill: none; stroke: #b0b0b0; stroke-width: 0.8; stroke-linecap: square"/>
     </g>
     <g id="line2d_4">
      <g>
       <use xlink:href="#m66b14420c4" x="138.51449" y="273.312" style="stroke: #000000; stroke-width: 0.8"/>
      </g>
     </g>
     <g id="text_2">
      <!-- 1 -->
      <g transform="translate(135.33324 287.910437) scale(0.1 -0.1)">
       <defs>
        <path id="DejaVuSans-31" d="M 794 531 
L 1825 531 
L 1825 4091 
L 703 3866 
L 703 4441 
L 1819 4666 
L 2450 4666 
L 2450 531 
L 3481 531 
L 3481 0 
L 794 0 
L 794 531 
z
" transform="scale(0.015625)"/>
       </defs>
       <use xlink:href="#DejaVuSans-31"/>
      </g>
     </g>
    </g>
    <g id="xtick_3">
     <g id="line2d_5">
      <path d="M 209.091565 273.312 
L 209.091565 7.2 
" clip-path="url(#pfac7618f83)" style="fill: none; stroke: #b0b0b0; stroke-width: 0.8; stroke-linecap: square"/>
     </g>
     <g id="line2d_6">
      <g>
       <use xlink:href="#m66b14420c4" x="209.091565" y="273.312" style="stroke: #000000; stroke-width: 0.8"/>
      </g>
     </g>
     <g id="text_3">
      <!-- 2 -->
      <g transform="translate(205.910315 287.910437) scale(0.1 -0.1)">
       <defs>
        <path id="DejaVuSans-32" d="M 1228 531 
L 3431 531 
L 3431 0 
L 469 0 
L 469 531 
Q 828 903 1448 1529 
Q 2069 2156 2228 2338 
Q 2531 2678 2651 2914 
Q 2772 3150 2772 3378 
Q 2772 3750 2511 3984 
Q 2250 4219 1831 4219 
Q 1534 4219 1204 4116 
Q 875 4013 500 3803 
L 500 4441 
Q 881 4594 1212 4672 
Q 1544 4750 1819 4750 
Q 2544 4750 2975 4387 
Q 3406 4025 3406 3419 
Q 3406 3131 3298 2873 
Q 3191 2616 2906 2266 
Q 2828 2175 2409 1742 
Q 1991 1309 1228 531 
z
" transform="scale(0.015625)"/>
       </defs>
       <use xlink:href="#DejaVuSans-32"/>
      </g>
     </g>
    </g>
    <g id="xtick_4">
     <g id="line2d_7">
      <path d="M 279.66864 273.312 
L 279.66864 7.2 
" clip-path="url(#pfac7618f83)" style="fill: none; stroke: #b0b0b0; stroke-width: 0.8; stroke-linecap: square"/>
     </g>
     <g id="line2d_8">
      <g>
       <use xlink:href="#m66b14420c4" x="279.66864" y="273.312" style="stroke: #000000; stroke-width: 0.8"/>
      </g>
     </g>
     <g id="text_4">
      <!-- 3 -->
      <g transform="translate(276.48739 287.910437) scale(0.1 -0.1)">
       <defs>
        <path id="DejaVuSans-33" d="M 2597 2516 
Q 3050 2419 3304 2112 
Q 3559 1806 3559 1356 
Q 3559 666 3084 287 
Q 2609 -91 1734 -91 
Q 1441 -91 1130 -33 
Q 819 25 488 141 
L 488 750 
Q 750 597 1062 519 
Q 1375 441 1716 441 
Q 2309 441 2620 675 
Q 2931 909 2931 1356 
Q 2931 1769 2642 2001 
Q 2353 2234 1838 2234 
L 1294 2234 
L 1294 2753 
L 1863 2753 
Q 2328 2753 2575 2939 
Q 2822 3125 2822 3475 
Q 2822 3834 2567 4026 
Q 2313 4219 1838 4219 
Q 1578 4219 1281 4162 
Q 984 4106 628 3988 
L 628 4550 
Q 988 4650 1302 4700 
Q 1616 4750 1894 4750 
Q 2613 4750 3031 4423 
Q 3450 4097 3450 3541 
Q 3450 3153 3228 2886 
Q 3006 2619 2597 2516 
z
" transform="scale(0.015625)"/>
       </defs>
       <use xlink:href="#DejaVuSans-33"/>
      </g>
     </g>
    </g>
    <g id="xtick_5">
     <g id="line2d_9">
      <path d="M 350.245715 273.312 
L 350.245715 7.2 
" clip-path="url(#pfac7618f83)" style="fill: none; stroke: #b0b0b0; stroke-width: 0.8; stroke-linecap: square"/>
     </g>
     <g id="line2d_10">
      <g>
       <use xlink:href="#m66b14420c4" x="350.245715" y="273.312" style="stroke: #000000; stroke-width: 0.8"/>
      </g>
     </g>
     <g id="text_5">
      <!-- 4 -->
      <g transform="translate(347.064465 287.910437) scale(0.1 -0.1)">
       <defs>
        <path id="DejaVuSans-34" d="M 2419 4116 
L 825 1625 
L 2419 1625 
L 2419 4116 
z
M 2253 4666 
L 3047 4666 
L 3047 1625 
L 3713 1625 
L 3713 1100 
L 3047 1100 
L 3047 0 
L 2419 0 
L 2419 1100 
L 313 1100 
L 313 1709 
L 2253 4666 
z
" transform="scale(0.015625)"/>
       </defs>
       <use xlink:href="#DejaVuSans-34"/>
      </g>
     </g>
    </g>
    <g id="text_6">
     <!-- time $t$ (ns) -->
     <g transform="translate(204.114688 301.588562) scale(0.1 -0.1)">
      <defs>
       <path id="DejaVuSans-74" d="M 1172 4494 
L 1172 3500 
L 2356 3500 
L 2356 3053 
L 1172 3053 
L 1172 1153 
Q 1172 725 1289 603 
Q 1406 481 1766 481 
L 2356 481 
L 2356 0 
L 1766 0 
Q 1100 0 847 248 
Q 594 497 594 1153 
L 594 3053 
L 172 3053 
L 172 3500 
L 594 3500 
L 594 4494 
L 1172 4494 
z
" transform="scale(0.015625)"/>
       <path id="DejaVuSans-69" d="M 603 3500 
L 1178 3500 
L 1178 0 
L 603 0 
L 603 3500 
z
M 603 4863 
L 1178 4863 
L 1178 4134 
L 603 4134 
L 603 4863 
z
" transform="scale(0.015625)"/>
       <path id="DejaVuSans-6d" d="M 3328 2828 
Q 3544 3216 3844 3400 
Q 4144 3584 4550 3584 
Q 5097 3584 5394 3201 
Q 5691 2819 5691 2113 
L 5691 0 
L 5113 0 
L 5113 2094 
Q 5113 2597 4934 2840 
Q 4756 3084 4391 3084 
Q 3944 3084 3684 2787 
Q 3425 2491 3425 1978 
L 3425 0 
L 2847 0 
L 2847 2094 
Q 2847 2600 2669 2842 
Q 2491 3084 2119 3084 
Q 1678 3084 1418 2786 
Q 1159 2488 1159 1978 
L 1159 0 
L 581 0 
L 581 3500 
L 1159 3500 
L 1159 2956 
Q 1356 3278 1631 3431 
Q 1906 3584 2284 3584 
Q 2666 3584 2933 3390 
Q 3200 3197 3328 2828 
z
" transform="scale(0.015625)"/>
       <path id="DejaVuSans-65" d="M 3597 1894 
L 3597 1613 
L 953 1613 
Q 991 1019 1311 708 
Q 1631 397 2203 397 
Q 2534 397 2845 478 
Q 3156 559 3463 722 
L 3463 178 
Q 3153 47 2828 -22 
Q 2503 -91 2169 -91 
Q 1331 -91 842 396 
Q 353 884 353 1716 
Q 353 2575 817 3079 
Q 1281 3584 2069 3584 
Q 2775 3584 3186 3129 
Q 3597 2675 3597 1894 
z
M 3022 2063 
Q 3016 2534 2758 2815 
Q 2500 3097 2075 3097 
Q 1594 3097 1305 2825 
Q 1016 2553 972 2059 
L 3022 2063 
z
" transform="scale(0.015625)"/>
       <path id="DejaVuSans-20" transform="scale(0.015625)"/>
       <path id="DejaVuSans-Oblique-74" d="M 2706 3500 
L 2619 3053 
L 1472 3053 
L 1100 1153 
Q 1081 1047 1072 975 
Q 1063 903 1063 863 
Q 1063 663 1183 572 
Q 1303 481 1569 481 
L 2150 481 
L 2053 0 
L 1503 0 
Q 991 0 739 200 
Q 488 400 488 806 
Q 488 878 497 964 
Q 506 1050 525 1153 
L 897 3053 
L 409 3053 
L 500 3500 
L 978 3500 
L 1172 4494 
L 1747 4494 
L 1556 3500 
L 2706 3500 
z
" transform="scale(0.015625)"/>
       <path id="DejaVuSans-28" d="M 1984 4856 
Q 1566 4138 1362 3434 
Q 1159 2731 1159 2009 
Q 1159 1288 1364 580 
Q 1569 -128 1984 -844 
L 1484 -844 
Q 1016 -109 783 600 
Q 550 1309 550 2009 
Q 550 2706 781 3412 
Q 1013 4119 1484 4856 
L 1984 4856 
z
" transform="scale(0.015625)"/>
       <path id="DejaVuSans-6e" d="M 3513 2113 
L 3513 0 
L 2938 0 
L 2938 2094 
Q 2938 2591 2744 2837 
Q 2550 3084 2163 3084 
Q 1697 3084 1428 2787 
Q 1159 2491 1159 1978 
L 1159 0 
L 581 0 
L 581 3500 
L 1159 3500 
L 1159 2956 
Q 1366 3272 1645 3428 
Q 1925 3584 2291 3584 
Q 2894 3584 3203 3211 
Q 3513 2838 3513 2113 
z
" transform="scale(0.015625)"/>
       <path id="DejaVuSans-73" d="M 2834 3397 
L 2834 2853 
Q 2591 2978 2328 3040 
Q 2066 3103 1784 3103 
Q 1356 3103 1142 2972 
Q 928 2841 928 2578 
Q 928 2378 1081 2264 
Q 1234 2150 1697 2047 
L 1894 2003 
Q 2506 1872 2764 1633 
Q 3022 1394 3022 966 
Q 3022 478 2636 193 
Q 2250 -91 1575 -91 
Q 1294 -91 989 -36 
Q 684 19 347 128 
L 347 722 
Q 666 556 975 473 
Q 1284 391 1588 391 
Q 1994 391 2212 530 
Q 2431 669 2431 922 
Q 2431 1156 2273 1281 
Q 2116 1406 1581 1522 
L 1381 1569 
Q 847 1681 609 1914 
Q 372 2147 372 2553 
Q 372 3047 722 3315 
Q 1072 3584 1716 3584 
Q 2034 3584 2315 3537 
Q 2597 3491 2834 3397 
z
" transform="scale(0.015625)"/>
       <path id="DejaVuSans-29" d="M 513 4856 
L 1013 4856 
Q 1481 4119 1714 3412 
Q 1947 2706 1947 2009 
Q 1947 1309 1714 600 
Q 1481 -109 1013 -844 
L 513 -844 
Q 928 -128 1133 580 
Q 1338 1288 1338 2009 
Q 1338 2731 1133 3434 
Q 928 4138 513 4856 
z
" transform="scale(0.015625)"/>
      </defs>
      <use xlink:href="#DejaVuSans-74" transform="translate(0 0.015625)"/>
      <use xlink:href="#DejaVuSans-69" transform="translate(39.208984 0.015625)"/>
      <use xlink:href="#DejaVuSans-6d" transform="translate(66.992188 0.015625)"/>
      <use xlink:href="#DejaVuSans-65" transform="translate(164.404297 0.015625)"/>
      <use xlink:href="#DejaVuSans-20" transform="translate(225.927734 0.015625)"/>
      <use xlink:href="#DejaVuSans-Oblique-74" transform="translate(257.714844 0.015625)"/>
      <use xlink:href="#DejaVuSans-20" transform="translate(296.923828 0.015625)"/>
      <use xlink:href="#DejaVuSans-28" transform="translate(328.710938 0.015625)"/>
      <use xlink:href="#DejaVuSans-6e" transform="translate(367.724609 0.015625)"/>
      <use xlink:href="#DejaVuSans-73" transform="translate(431.103516 0.015625)"/>
      <use xlink:href="#DejaVuSans-29" transform="translate(483.203125 0.015625)"/>
     </g>
    </g>
   </g>
   <g id="matplotlib.axis_2">
    <g id="ytick_1">
     <g id="line2d_11">
      <path d="M 51.704688 266.900137 
L 408.824687 266.900137 
" clip-path="url(#pfac7618f83)" style="fill: none; stroke: #b0b0b0; stroke-width: 0.8; stroke-linecap: square"/>
     </g>
     <g id="line2d_12">
      <defs>
       <path id="m4c93f61ce0" d="M 0 0 
L -3.5 0 
" style="stroke: #000000; stroke-width: 0.8"/>
      </defs>
      <g>
       <use xlink:href="#m4c93f61ce0" x="51.704688" y="266.900137" style="stroke: #000000; stroke-width: 0.8"/>
      </g>
     </g>
     <g id="text_7">
      <!-- −60 -->
      <g transform="translate(23.6 270.699356) scale(0.1 -0.1)">
       <defs>
        <path id="DejaVuSans-2212" d="M 678 2272 
L 4684 2272 
L 4684 1741 
L 678 1741 
L 678 2272 
z
" transform="scale(0.015625)"/>
        <path id="DejaVuSans-36" d="M 2113 2584 
Q 1688 2584 1439 2293 
Q 1191 2003 1191 1497 
Q 1191 994 1439 701 
Q 1688 409 2113 409 
Q 2538 409 2786 701 
Q 3034 994 3034 1497 
Q 3034 2003 2786 2293 
Q 2538 2584 2113 2584 
z
M 3366 4563 
L 3366 3988 
Q 3128 4100 2886 4159 
Q 2644 4219 2406 4219 
Q 1781 4219 1451 3797 
Q 1122 3375 1075 2522 
Q 1259 2794 1537 2939 
Q 1816 3084 2150 3084 
Q 2853 3084 3261 2657 
Q 3669 2231 3669 1497 
Q 3669 778 3244 343 
Q 2819 -91 2113 -91 
Q 1303 -91 875 529 
Q 447 1150 447 2328 
Q 447 3434 972 4092 
Q 1497 4750 2381 4750 
Q 2619 4750 2861 4703 
Q 3103 4656 3366 4563 
z
" transform="scale(0.015625)"/>
       </defs>
       <use xlink:href="#DejaVuSans-2212"/>
       <use xlink:href="#DejaVuSans-36" x="83.789062"/>
       <use xlink:href="#DejaVuSans-30" x="147.412109"/>
      </g>
     </g>
    </g>
    <g id="ytick_2">
     <g id="line2d_13">
      <path d="M 51.704688 232.18606 
L 408.824687 232.18606 
" clip-path="url(#pfac7618f83)" style="fill: none; stroke: #b0b0b0; stroke-width: 0.8; stroke-linecap: square"/>
     </g>
     <g id="line2d_14">
      <g>
       <use xlink:href="#m4c93f61ce0" x="51.704688" y="232.18606" style="stroke: #000000; stroke-width: 0.8"/>
      </g>
     </g>
     <g id="text_8">
      <!-- −40 -->
      <g transform="translate(23.6 235.985278) scale(0.1 -0.1)">
       <use xlink:href="#DejaVuSans-2212"/>
       <use xlink:href="#DejaVuSans-34" x="83.789062"/>
       <use xlink:href="#DejaVuSans-30" x="147.412109"/>
      </g>
     </g>
    </g>
    <g id="ytick_3">
     <g id="line2d_15">
      <path d="M 51.704688 197.471982 
L 408.824687 197.471982 
" clip-path="url(#pfac7618f83)" style="fill: none; stroke: #b0b0b0; stroke-width: 0.8; stroke-linecap: square"/>
     </g>
     <g id="line2d_16">
      <g>
       <use xlink:href="#m4c93f61ce0" x="51.704688" y="197.471982" style="stroke: #000000; stroke-width: 0.8"/>
      </g>
     </g>
     <g id="text_9">
      <!-- −20 -->
      <g transform="translate(23.6 201.271201) scale(0.1 -0.1)">
       <use xlink:href="#DejaVuSans-2212"/>
       <use xlink:href="#DejaVuSans-32" x="83.789062"/>
       <use xlink:href="#DejaVuSans-30" x="147.412109"/>
      </g>
     </g>
    </g>
    <g id="ytick_4">
     <g id="line2d_17">
      <path d="M 51.704688 162.757904 
L 408.824687 162.757904 
" clip-path="url(#pfac7618f83)" style="fill: none; stroke: #b0b0b0; stroke-width: 0.8; stroke-linecap: square"/>
     </g>
     <g id="line2d_18">
      <g>
       <use xlink:href="#m4c93f61ce0" x="51.704688" y="162.757904" style="stroke: #000000; stroke-width: 0.8"/>
      </g>
     </g>
     <g id="text_10">
      <!-- 0 -->
      <g transform="translate(38.342188 166.557123) scale(0.1 -0.1)">
       <use xlink:href="#DejaVuSans-30"/>
      </g>
     </g>
    </g>
    <g id="ytick_5">
     <g id="line2d_19">
      <path d="M 51.704688 128.043826 
L 408.824687 128.043826 
" clip-path="url(#pfac7618f83)" style="fill: none; stroke: #b0b0b0; stroke-width: 0.8; stroke-linecap: square"/>
     </g>
     <g id="line2d_20">
      <g>
       <use xlink:href="#m4c93f61ce0" x="51.704688" y="128.043826" style="stroke: #000000; stroke-width: 0.8"/>
      </g>
     </g>
     <g id="text_11">
      <!-- 20 -->
      <g transform="translate(31.979688 131.843045) scale(0.1 -0.1)">
       <use xlink:href="#DejaVuSans-32"/>
       <use xlink:href="#DejaVuSans-30" x="63.623047"/>
      </g>
     </g>
    </g>
    <g id="ytick_6">
     <g id="line2d_21">
      <path d="M 51.704688 93.329749 
L 408.824687 93.329749 
" clip-path="url(#pfac7618f83)" style="fill: none; stroke: #b0b0b0; stroke-width: 0.8; stroke-linecap: square"/>
     </g>
     <g id="line2d_22">
      <g>
       <use xlink:href="#m4c93f61ce0" x="51.704688" y="93.329749" style="stroke: #000000; stroke-width: 0.8"/>
      </g>
     </g>
     <g id="text_12">
      <!-- 40 -->
      <g transform="translate(31.979688 97.128967) scale(0.1 -0.1)">
       <use xlink:href="#DejaVuSans-34"/>
       <use xlink:href="#DejaVuSans-30" x="63.623047"/>
      </g>
     </g>
    </g>
    <g id="ytick_7">
     <g id="line2d_23">
      <path d="M 51.704688 58.615671 
L 408.824687 58.615671 
" clip-path="url(#pfac7618f83)" style="fill: none; stroke: #b0b0b0; stroke-width: 0.8; stroke-linecap: square"/>
     </g>
     <g id="line2d_24">
      <g>
       <use xlink:href="#m4c93f61ce0" x="51.704688" y="58.615671" style="stroke: #000000; stroke-width: 0.8"/>
      </g>
     </g>
     <g id="text_13">
      <!-- 60 -->
      <g transform="translate(31.979688 62.41489) scale(0.1 -0.1)">
       <use xlink:href="#DejaVuSans-36"/>
       <use xlink:href="#DejaVuSans-30" x="63.623047"/>
      </g>
     </g>
    </g>
    <g id="ytick_8">
     <g id="line2d_25">
      <path d="M 51.704688 23.901593 
L 408.824687 23.901593 
" clip-path="url(#pfac7618f83)" style="fill: none; stroke: #b0b0b0; stroke-width: 0.8; stroke-linecap: square"/>
     </g>
     <g id="line2d_26">
      <g>
       <use xlink:href="#m4c93f61ce0" x="51.704688" y="23.901593" style="stroke: #000000; stroke-width: 0.8"/>
      </g>
     </g>
     <g id="text_14">
      <!-- 80 -->
      <g transform="translate(31.979688 27.700812) scale(0.1 -0.1)">
       <defs>
        <path id="DejaVuSans-38" d="M 2034 2216 
Q 1584 2216 1326 1975 
Q 1069 1734 1069 1313 
Q 1069 891 1326 650 
Q 1584 409 2034 409 
Q 2484 409 2743 651 
Q 3003 894 3003 1313 
Q 3003 1734 2745 1975 
Q 2488 2216 2034 2216 
z
M 1403 2484 
Q 997 2584 770 2862 
Q 544 3141 544 3541 
Q 544 4100 942 4425 
Q 1341 4750 2034 4750 
Q 2731 4750 3128 4425 
Q 3525 4100 3525 3541 
Q 3525 3141 3298 2862 
Q 3072 2584 2669 2484 
Q 3125 2378 3379 2068 
Q 3634 1759 3634 1313 
Q 3634 634 3220 271 
Q 2806 -91 2034 -91 
Q 1263 -91 848 271 
Q 434 634 434 1313 
Q 434 1759 690 2068 
Q 947 2378 1403 2484 
z
M 1172 3481 
Q 1172 3119 1398 2916 
Q 1625 2713 2034 2713 
Q 2441 2713 2670 2916 
Q 2900 3119 2900 3481 
Q 2900 3844 2670 4047 
Q 2441 4250 2034 4250 
Q 1625 4250 1398 4047 
Q 1172 3844 1172 3481 
z
" transform="scale(0.015625)"/>
       </defs>
       <use xlink:href="#DejaVuSans-38"/>
       <use xlink:href="#DejaVuSans-30" x="63.623047"/>
      </g>
     </g>
    </g>
    <g id="text_15">
     <!-- $\left\langle \mathbf{R}_\alpha(t)\cdot\mathbf{R}_\beta(t)\right\rangle$ ($\AA^2$) -->
     <g transform="translate(16.5 184.956) rotate(-90) scale(0.1 -0.1)">
      <defs>
       <path id="STIXSizeOneSym-Regular-27e8" d="M 2957 -1050 
L 2477 -1050 
L 742 2886 
L 2477 6822 
L 2957 6822 
L 1222 2886 
L 2957 -1050 
z
" transform="scale(0.015625)"/>
       <path id="DejaVuSans-Bold-52" d="M 2297 2597 
Q 2675 2597 2839 2737 
Q 3003 2878 3003 3200 
Q 3003 3519 2839 3656 
Q 2675 3794 2297 3794 
L 1791 3794 
L 1791 2597 
L 2297 2597 
z
M 1791 1766 
L 1791 0 
L 588 0 
L 588 4666 
L 2425 4666 
Q 3347 4666 3776 4356 
Q 4206 4047 4206 3378 
Q 4206 2916 3982 2619 
Q 3759 2322 3309 2181 
Q 3556 2125 3751 1926 
Q 3947 1728 4147 1325 
L 4800 0 
L 3519 0 
L 2950 1159 
Q 2778 1509 2601 1637 
Q 2425 1766 2131 1766 
L 1791 1766 
z
" transform="scale(0.015625)"/>
       <path id="DejaVuSans-Oblique-3b1" d="M 2619 1628 
L 2622 2350 
Q 2625 3088 2069 3091 
Q 1653 3094 1394 2747 
Q 1069 2319 959 1747 
Q 825 1059 994 731 
Q 1169 397 1547 397 
Q 1966 397 2319 1063 
L 2619 1628 
z
M 2166 3578 
Q 3141 3594 3128 2584 
Q 3128 2584 3616 3500 
L 4128 3500 
L 3119 1603 
L 3109 919 
Q 3109 766 3194 638 
Q 3291 488 3391 488 
L 3669 488 
L 3575 0 
L 3228 0 
Q 2934 0 2722 263 
Q 2622 394 2619 669 
Q 2416 334 2066 50 
Q 1900 -81 1453 -78 
Q 722 -72 456 397 
Q 184 884 353 1747 
Q 534 2675 1009 3097 
Q 1544 3569 2166 3578 
z
" transform="scale(0.015625)"/>
       <path id="DejaVuSans-22c5" d="M 684 2619 
L 1344 2619 
L 1344 1825 
L 684 1825 
L 684 2619 
z
" transform="scale(0.015625)"/>
       <path id="DejaVuSans-Oblique-3b2" d="M 872 216 
L 572 -1331 
L -6 -1331 
L 928 3478 
Q 1206 4903 2538 4903 
Q 3888 4903 3659 3700 
Q 3503 2844 2894 2531 
Q 3713 2250 3553 1416 
Q 3272 -69 1759 -66 
Q 1097 -63 872 216 
z
M 1019 966 
Q 1259 422 1875 425 
Q 2775 425 2966 1406 
Q 3138 2288 1675 2219 
L 1778 2750 
Q 2909 2731 3106 3750 
Q 3241 4438 2509 4434 
Q 1691 4434 1503 3459 
L 1019 966 
z
" transform="scale(0.015625)"/>
       <path id="STIXSizeOneSym-Regular-27e9" d="M 2957 2886 
L 1222 -1050 
L 742 -1050 
L 2477 2886 
L 742 6822 
L 1222 6822 
L 2957 2886 
z
" transform="scale(0.015625)"/>
       <path id="DejaVuSans-Oblique-c5" d="M 3188 5081 
Q 3188 5278 3048 5417 
Q 2909 5556 2713 5556 
Q 2513 5556 2377 5420 
Q 2241 5284 2241 5081 
Q 2241 4884 2377 4746 
Q 2513 4609 2713 4609 
Q 2909 4609 3048 4746 
Q 3188 4884 3188 5081 
z
M 2203 4397 
Q 2034 4513 1945 4689 
Q 1856 4866 1856 5081 
Q 1856 5438 2106 5689 
Q 2356 5941 2713 5941 
Q 3069 5941 3320 5689 
Q 3572 5438 3572 5081 
Q 3572 4834 3458 4643 
Q 3344 4453 3128 4341 
L 3938 0 
L 3278 0 
L 3084 1197 
L 984 1197 
L 325 0 
L -341 0 
L 2203 4397 
z
M 2584 4044 
L 1275 1722 
L 2988 1722 
L 2584 4044 
z
" transform="scale(0.015625)"/>
      </defs>
      <use xlink:href="#STIXSizeOneSym-Regular-27e8" transform="translate(0 -16.526562) scale(0.86861)"/>
      <use xlink:href="#DejaVuSans-Bold-52" transform="translate(50.213745 0.171875)"/>
      <use xlink:href="#DejaVuSans-Oblique-3b1" transform="translate(128.172729 -16.234375) scale(0.7)"/>
      <use xlink:href="#DejaVuSans-28" transform="translate(177.049683 0.171875)"/>
      <use xlink:href="#DejaVuSans-Oblique-74" transform="translate(216.063354 0.171875)"/>
      <use xlink:href="#DejaVuSans-29" transform="translate(255.272339 0.171875)"/>
      <use xlink:href="#DejaVuSans-22c5" transform="translate(313.768433 0.171875)"/>
      <use xlink:href="#DejaVuSans-Bold-52" transform="translate(365.037964 0.171875)"/>
      <use xlink:href="#DejaVuSans-Oblique-3b2" transform="translate(442.996948 -16.234375) scale(0.7)"/>
      <use xlink:href="#DejaVuSans-28" transform="translate(490.404175 0.171875)"/>
      <use xlink:href="#DejaVuSans-Oblique-74" transform="translate(529.417847 0.171875)"/>
      <use xlink:href="#DejaVuSans-29" transform="translate(568.626831 0.171875)"/>
      <use xlink:href="#STIXSizeOneSym-Regular-27e9" transform="translate(607.640503 -16.526562) scale(0.86861)"/>
      <use xlink:href="#DejaVuSans-20" transform="translate(657.854248 0.171875)"/>
      <use xlink:href="#DejaVuSans-28" transform="translate(689.641357 0.171875)"/>
      <use xlink:href="#DejaVuSans-Oblique-c5" transform="translate(728.655029 0.171875)"/>
      <use xlink:href="#DejaVuSans-32" transform="translate(806.869066 38.453125) scale(0.7)"/>
      <use xlink:href="#DejaVuSans-29" transform="translate(854.139574 0.171875)"/>
     </g>
    </g>
   </g>
   <g id="line2d_27">
    <path d="M 67.937415 162.757904 
L 74.995122 84.626361 
L 82.05283 100.821578 
L 89.110537 102.268061 
L 96.168245 95.650967 
L 103.225952 55.46041 
L 110.28366 104.416831 
L 117.341367 75.06515 
L 124.399075 82.474655 
L 131.456782 83.607423 
L 138.51449 73.881049 
L 145.572197 81.908821 
L 152.629905 73.329004 
L 159.687612 71.179478 
L 166.74532 67.38453 
L 173.803027 57.387212 
L 180.860735 60.695351 
L 187.918442 72.176813 
L 194.97615 75.697353 
L 202.033857 59.281258 
L 209.091565 90.406022 
L 216.149272 72.573411 
L 223.20698 66.708058 
L 230.264687 28.663241 
L 237.322395 89.055377 
L 244.380103 55.709357 
L 251.43781 23.52265 
L 258.495518 41.042515 
L 265.553225 46.417103 
L 272.610933 64.54003 
L 279.66864 76.090683 
L 286.726348 48.759281 
L 293.784055 70.614576 
L 300.841763 90.243484 
L 307.89947 76.01859 
L 314.957178 31.885095 
L 322.014885 63.069881 
L 329.072593 61.233931 
L 336.1303 67.923274 
L 343.188008 41.427714 
L 350.245715 67.640199 
L 357.303423 35.529943 
L 364.36113 25.379119 
L 371.418838 26.426976 
L 378.476545 41.086731 
L 385.534253 19.296 
L 392.59196 24.605481 
" clip-path="url(#pfac7618f83)" style="fill: none; stroke: #1f77b4; stroke-width: 1.5; stroke-linecap: square"/>
   </g>
   <g id="line2d_28">
    <path d="M 67.937415 162.757904 
L 74.995122 225.01132 
L 82.05283 207.647047 
L 89.110537 203.899717 
L 96.168245 217.890394 
L 103.225952 233.973247 
L 110.28366 212.290048 
L 117.341367 227.878312 
L 124.399075 214.07926 
L 131.456782 215.793757 
L 138.51449 234.540701 
L 145.572197 226.988145 
L 152.629905 232.624086 
L 159.687612 236.743386 
L 166.74532 239.529689 
L 173.803027 237.344658 
L 180.860735 232.279338 
L 187.918442 232.389306 
L 194.97615 225.248452 
L 202.033857 238.732312 
L 209.091565 228.057564 
L 216.149272 230.211814 
L 223.20698 230.70165 
L 230.264687 261.216 
L 237.322395 213.650468 
L 244.380103 242.907634 
L 251.43781 260.243609 
L 258.495518 242.019827 
L 265.553225 239.758579 
L 272.610933 236.123202 
L 279.66864 219.006454 
L 286.726348 246.988888 
L 293.784055 228.014621 
L 300.841763 222.56468 
L 307.89947 227.502835 
L 314.957178 259.08646 
L 322.014885 225.215258 
L 329.072593 242.040993 
L 336.1303 232.351288 
L 343.188008 239.349085 
L 350.245715 225.422704 
L 357.303423 255.520743 
L 364.36113 249.851249 
L 371.418838 249.017808 
L 378.476545 246.28631 
L 385.534253 255.541815 
L 392.59196 254.49467 
" clip-path="url(#pfac7618f83)" style="fill: none; stroke: #ff7f0e; stroke-width: 1.5; stroke-linecap: square"/>
   </g>
   <g id="line2d_29">
    <path d="M 67.937415 162.757904 
L 74.995122 176.400275 
L 82.05283 178.60924 
L 89.110537 181.284087 
L 96.168245 172.59734 
L 103.225952 197.607434 
L 110.28366 169.500862 
L 117.341367 183.431175 
L 124.399075 191.049769 
L 131.456782 187.898377 
L 138.51449 177.179179 
L 145.572197 177.084465 
L 152.629905 179.945972 
L 159.687612 177.597016 
L 166.74532 178.535291 
L 173.803027 191.731775 
L 180.860735 193.891935 
L 187.918442 181.44651 
L 194.97615 185.722006 
L 202.033857 188.135605 
L 209.091565 166.757639 
L 216.149272 183.476709 
L 223.20698 189.220789 
L 230.264687 195.638608 
L 237.322395 184.464471 
L 244.380103 187.252294 
L 251.43781 202.254108 
L 258.495518 204.016811 
L 265.553225 200.794836 
L 272.610933 185.4348 
L 279.66864 192.349217 
L 286.726348 190.112748 
L 293.784055 188.061543 
L 300.841763 173.131368 
L 307.89947 182.834959 
L 314.957178 194.577631 
L 322.014885 199.320326 
L 329.072593 182.299827 
L 336.1303 186.051741 
L 343.188008 206.619004 
L 350.245715 194.18218 
L 357.303423 194.693617 
L 364.36113 211.99289 
L 371.418838 211.809884 
L 378.476545 199.147273 
L 385.534253 212.104932 
L 392.59196 207.585964 
" clip-path="url(#pfac7618f83)" style="fill: none; stroke: #2ca02c; stroke-width: 1.5; stroke-linecap: square"/>
   </g>
   <g id="line2d_30">
    <path d="M 67.937415 162.757904 
L 74.995122 94.784216 
L 82.05283 114.411846 
L 89.110537 119.903644 
L 96.168245 101.14817 
L 103.225952 98.372594 
L 110.28366 100.675987 
L 117.341367 100.921258 
L 124.399075 109.450906 
L 131.456782 112.066112 
L 138.51449 82.513674 
L 145.572197 85.918944 
L 152.629905 80.486478 
L 159.687612 82.346752 
L 166.74532 75.053762 
L 173.803027 80.031344 
L 180.860735 94.141746 
L 187.918442 81.396303 
L 194.97615 94.442937 
L 202.033857 81.579551 
L 209.091565 86.932011 
L 216.149272 89.061339 
L 223.20698 89.49377 
L 230.264687 67.314905 
L 237.322395 104.422341 
L 244.380103 77.831901 
L 251.43781 74.622981 
L 258.495518 82.652947 
L 265.553225 86.278553 
L 272.610933 71.724347 
L 279.66864 101.855481 
L 286.726348 75.298846 
L 293.784055 95.022792 
L 300.841763 80.781299 
L 307.89947 84.549994 
L 314.957178 67.030094 
L 322.014885 85.927409 
L 329.072593 72.806204 
L 336.1303 78.867883 
L 343.188008 89.913542 
L 350.245715 97.593894 
L 357.303423 63.728961 
L 364.36113 87.162092 
L 371.418838 78.958469 
L 378.476545 74.628278 
L 385.534253 77.051495 
L 392.59196 79.294608 
" clip-path="url(#pfac7618f83)" style="fill: none; stroke: #d62728; stroke-width: 1.5; stroke-linecap: square"/>
   </g>
   <g id="line2d_31">
    <path d="M 67.937415 162.757904 
L 74.995122 172.624607 
L 82.05283 169.117213 
L 89.110537 166.943538 
L 96.168245 173.091563 
L 103.225952 158.948567 
L 110.28366 179.639135 
L 117.341367 162.618811 
L 124.399075 167.811609 
L 131.456782 163.018106 
L 138.51449 176.245372 
L 145.572197 180.512074 
L 152.629905 180.582855 
L 159.687612 174.065031 
L 166.74532 179.299746 
L 173.803027 176.034039 
L 180.860735 165.54753 
L 187.918442 179.810076 
L 194.97615 172.757257 
L 202.033857 172.791883 
L 209.091565 178.211431 
L 216.149272 173.496101 
L 223.20698 172.484587 
L 230.264687 164.746021 
L 237.322395 173.950955 
L 244.380103 172.541485 
L 251.43781 157.543317 
L 258.495518 168.044124 
L 265.553225 166.385442 
L 272.610933 186.717549 
L 279.66864 171.089119 
L 286.726348 171.017404 
L 293.784055 169.127161 
L 300.841763 191.055705 
L 307.89947 181.497048 
L 314.957178 167.356455 
L 322.014885 182.403371 
L 329.072593 179.141213 
L 336.1303 182.708151 
L 343.188008 162.717148 
L 350.245715 169.009178 
L 357.303423 174.908356 
L 364.36113 154.551046 
L 371.418838 164.707643 
L 378.476545 172.525857 
L 385.534253 159.848242 
L 392.59196 158.444243 
" clip-path="url(#pfac7618f83)" style="fill: none; stroke: #9467bd; stroke-width: 1.5; stroke-linecap: square"/>
   </g>
   <g id="line2d_32">
    <path d="M 67.937415 162.757904 
L 74.995122 136.969715 
L 82.05283 138.555537 
L 89.110537 138.137192 
L 96.168245 140.524564 
L 103.225952 129.632069 
L 110.28366 136.463378 
L 117.341367 140.713813 
L 124.399075 126.668781 
L 131.456782 135.463818 
L 138.51449 132.046309 
L 145.572197 127.330843 
L 152.629905 124.177885 
L 159.687612 134.059259 
L 166.74532 127.14014 
L 173.803027 116.653999 
L 180.860735 126.174823 
L 187.918442 123.438354 
L 194.97615 126.806451 
L 202.033857 124.176021 
L 209.091565 141.021669 
L 216.149272 128.387426 
L 223.20698 123.359595 
L 230.264687 125.201566 
L 237.322395 126.81013 
L 244.380103 125.410248 
L 251.43781 126.227695 
L 258.495518 112.480861 
L 265.553225 117.809902 
L 272.610933 111.35651 
L 279.66864 121.573249 
L 286.726348 124.055433 
L 293.784055 128.393421 
L 300.841763 119.676706 
L 307.89947 120.045704 
L 314.957178 123.397217 
L 322.014885 101.31656 
L 329.072593 123.281138 
L 336.1303 115.223846 
L 343.188008 115.697489 
L 350.245715 121.951976 
L 357.303423 114.746594 
L 364.36113 119.14351 
L 371.418838 107.87218 
L 378.476545 112.651835 
L 385.534253 113.045743 
L 392.59196 119.478615 
" clip-path="url(#pfac7618f83)" style="fill: none; stroke: #8c564b; stroke-width: 1.5; stroke-linecap: square"/>
   </g>
   <g id="patch_3">
    <path d="M 51.704688 273.312 
L 51.704688 7.2 
" style="fill: none; stroke: #000000; stroke-width: 0.8; stroke-linejoin: miter; stroke-linecap: square"/>
   </g>
   <g id="patch_4">
    <path d="M 408.824687 273.312 
L 408.824687 7.2 
" style="fill: none; stroke: #000000; stroke-width: 0.8; stroke-linejoin: miter; stroke-linecap: square"/>
   </g>
   <g id="patch_5">
    <path d="M 51.704687 273.312 
L 408.824687 273.312 
" style="fill: none; stroke: #000000; stroke-width: 0.8; stroke-linejoin: miter; stroke-linecap: square"/>
   </g>
   <g id="patch_6">
    <path d="M 51.704687 7.2 
L 408.824687 7.2 
" style="fill: none; stroke: #000000; stroke-width: 0.8; stroke-linejoin: miter; stroke-linecap: square"/>
   </g>
   <g id="legend_1">
    <g id="patch_7">
     <path d="M 58.704688 118.06875 
L 113.414062 118.06875 
Q 115.414062 118.06875 115.414062 116.06875 
L 115.414062 14.2 
Q 115.414062 12.2 113.414062 12.2 
L 58.704688 12.2 
Q 56.704688 12.2 56.704688 14.2 
L 56.704688 116.06875 
Q 56.704688 118.06875 58.704688 118.06875 
z
" style="fill: #ffffff; opacity: 0.8; stroke: #cccccc; stroke-linejoin: miter"/>
    </g>
    <g id="text_16">
     <!-- $\alpha\beta$ -->
     <g transform="translate(79.559375 23.9) scale(0.1 -0.1)">
      <use xlink:href="#DejaVuSans-Oblique-3b1" transform="translate(0 0.390625)"/>
      <use xlink:href="#DejaVuSans-Oblique-3b2" transform="translate(65.917969 0.390625)"/>
     </g>
    </g>
    <g id="line2d_33">
     <path d="M 60.704688 35.098437 
L 70.704688 35.098437 
L 80.704688 35.098437 
" style="fill: none; stroke: #1f77b4; stroke-width: 1.5; stroke-linecap: square"/>
    </g>
    <g id="text_17">
     <!-- FeFe -->
     <g transform="translate(88.704688 38.598437) scale(0.1 -0.1)">
      <defs>
       <path id="DejaVuSans-46" d="M 628 4666 
L 3309 4666 
L 3309 4134 
L 1259 4134 
L 1259 2759 
L 3109 2759 
L 3109 2228 
L 1259 2228 
L 1259 0 
L 628 0 
L 628 4666 
z
" transform="scale(0.015625)"/>
      </defs>
      <use xlink:href="#DejaVuSans-46"/>
      <use xlink:href="#DejaVuSans-65" x="52.019531"/>
      <use xlink:href="#DejaVuSans-46" x="113.542969"/>
      <use xlink:href="#DejaVuSans-65" x="165.5625"/>
     </g>
    </g>
    <g id="line2d_34">
     <path d="M 60.704688 49.776562 
L 70.704688 49.776562 
L 80.704688 49.776562 
" style="fill: none; stroke: #ff7f0e; stroke-width: 1.5; stroke-linecap: square"/>
    </g>
    <g id="text_18">
     <!-- FeNi -->
     <g transform="translate(88.704688 53.276562) scale(0.1 -0.1)">
      <defs>
       <path id="DejaVuSans-4e" d="M 628 4666 
L 1478 4666 
L 3547 763 
L 3547 4666 
L 4159 4666 
L 4159 0 
L 3309 0 
L 1241 3903 
L 1241 0 
L 628 0 
L 628 4666 
z
" transform="scale(0.015625)"/>
      </defs>
      <use xlink:href="#DejaVuSans-46"/>
      <use xlink:href="#DejaVuSans-65" x="52.019531"/>
      <use xlink:href="#DejaVuSans-4e" x="113.542969"/>
      <use xlink:href="#DejaVuSans-69" x="188.347656"/>
     </g>
    </g>
    <g id="line2d_35">
     <path d="M 60.704688 64.454687 
L 70.704688 64.454687 
L 80.704688 64.454687 
" style="fill: none; stroke: #2ca02c; stroke-width: 1.5; stroke-linecap: square"/>
    </g>
    <g id="text_19">
     <!-- FeCr -->
     <g transform="translate(88.704688 67.954687) scale(0.1 -0.1)">
      <defs>
       <path id="DejaVuSans-43" d="M 4122 4306 
L 4122 3641 
Q 3803 3938 3442 4084 
Q 3081 4231 2675 4231 
Q 1875 4231 1450 3742 
Q 1025 3253 1025 2328 
Q 1025 1406 1450 917 
Q 1875 428 2675 428 
Q 3081 428 3442 575 
Q 3803 722 4122 1019 
L 4122 359 
Q 3791 134 3420 21 
Q 3050 -91 2638 -91 
Q 1578 -91 968 557 
Q 359 1206 359 2328 
Q 359 3453 968 4101 
Q 1578 4750 2638 4750 
Q 3056 4750 3426 4639 
Q 3797 4528 4122 4306 
z
" transform="scale(0.015625)"/>
       <path id="DejaVuSans-72" d="M 2631 2963 
Q 2534 3019 2420 3045 
Q 2306 3072 2169 3072 
Q 1681 3072 1420 2755 
Q 1159 2438 1159 1844 
L 1159 0 
L 581 0 
L 581 3500 
L 1159 3500 
L 1159 2956 
Q 1341 3275 1631 3429 
Q 1922 3584 2338 3584 
Q 2397 3584 2469 3576 
Q 2541 3569 2628 3553 
L 2631 2963 
z
" transform="scale(0.015625)"/>
      </defs>
      <use xlink:href="#DejaVuSans-46"/>
      <use xlink:href="#DejaVuSans-65" x="52.019531"/>
      <use xlink:href="#DejaVuSans-43" x="113.542969"/>
      <use xlink:href="#DejaVuSans-72" x="183.367188"/>
     </g>
    </g>
    <g id="line2d_36">
     <path d="M 60.704688 79.132812 
L 70.704688 79.132812 
L 80.704688 79.132812 
" style="fill: none; stroke: #d62728; stroke-width: 1.5; stroke-linecap: square"/>
    </g>
    <g id="text_20">
     <!-- NiNi -->
     <g transform="translate(88.704688 82.632812) scale(0.1 -0.1)">
      <use xlink:href="#DejaVuSans-4e"/>
      <use xlink:href="#DejaVuSans-69" x="74.804688"/>
      <use xlink:href="#DejaVuSans-4e" x="102.587891"/>
      <use xlink:href="#DejaVuSans-69" x="177.392578"/>
     </g>
    </g>
    <g id="line2d_37">
     <path d="M 60.704688 93.810937 
L 70.704688 93.810937 
L 80.704688 93.810937 
" style="fill: none; stroke: #9467bd; stroke-width: 1.5; stroke-linecap: square"/>
    </g>
    <g id="text_21">
     <!-- NiCr -->
     <g transform="translate(88.704688 97.310937) scale(0.1 -0.1)">
      <use xlink:href="#DejaVuSans-4e"/>
      <use xlink:href="#DejaVuSans-69" x="74.804688"/>
      <use xlink:href="#DejaVuSans-43" x="102.587891"/>
      <use xlink:href="#DejaVuSans-72" x="172.412109"/>
     </g>
    </g>
    <g id="line2d_38">
     <path d="M 60.704688 108.489062 
L 70.704688 108.489062 
L 80.704688 108.489062 
" style="fill: none; stroke: #8c564b; stroke-width: 1.5; stroke-linecap: square"/>
    </g>
    <g id="text_22">
     <!-- CrCr -->
     <g transform="translate(88.704688 111.989062) scale(0.1 -0.1)">
      <use xlink:href="#DejaVuSans-43"/>
      <use xlink:href="#DejaVuSans-72" x="69.824219"/>
      <use xlink:href="#DejaVuSans-43" x="110.9375"/>
      <use xlink:href="#DejaVuSans-72" x="180.761719"/>
     </g>
    </g>
   </g>
  </g>
 </g>
 <defs>
  <clipPath id="pfac7618f83">
   <rect x="51.704688" y="7.2" width="357.12" height="266.112"/>
  </clipPath>
 </defs>
</svg>
